<?xml version="1.0" standalone="no"?>
<!DOCTYPE svg PUBLIC "-//W3C//DTD SVG 20010904//EN"
 "http://www.w3.org/TR/2001/REC-SVG-20010904/DTD/svg10.dtd">
<svg version="1.0" xmlns="http://www.w3.org/2000/svg"
 width="640.000000pt" height="640.000000pt" viewBox="0 0 640.000000 640.000000"
 preserveAspectRatio="xMidYMid meet">
<metadata>
Created by potrace 1.14, written by Peter Selinger 2001-2017
</metadata>
<g transform="translate(0.000000,640.000000) scale(0.100000,-0.100000)"
fill="#000000" stroke="none">
<path d="M2708 4523 c-3 -34 -6 -38 -32 -41 l-29 -4 6 -161 c4 -89 7 -246 7
-349 l0 -188 330 0 330 0 10 -26 c6 -14 10 -40 10 -57 0 -18 5 -67 12 -109
l11 -78 168 0 167 0 7 78 c4 42 13 120 20 172 8 52 17 116 20 143 5 38 10 47
26 47 10 0 19 7 19 15 0 28 -27 79 -54 104 l-26 24 0 194 0 193 -25 0 c-22 0
-25 4 -25 40 l0 40 -201 0 -201 0 -35 -30 c-18 -16 -37 -30 -41 -30 -5 0 -21
14 -37 30 l-29 30 -202 0 -203 0 -3 -37z m429 -15 l33 -32 0 -323 c0 -178 -4
-323 -8 -323 -5 0 -17 9 -27 20 -16 18 -33 20 -209 22 l-191 3 -3 320 c-1 176
0 325 3 332 3 10 49 13 187 13 l182 0 33 -32z m497 16 c3 -9 6 -107 6 -219 0
-192 -1 -205 -19 -215 -11 -5 -79 -10 -151 -10 -150 0 -161 -5 -191 -85 l-17
-45 24 0 c17 0 25 -7 30 -25 9 -36 -2 -55 -32 -55 -14 0 -38 -9 -54 -20 -15
-11 -30 -17 -34 -13 -3 3 -6 147 -6 319 l0 313 38 35 37 36 181 0 c157 0 183
-2 188 -16z m99 -495 c30 -35 33 -44 14 -56 -7 -4 -18 -20 -24 -35 l-13 -28
-184 0 -184 0 -7 29 c-3 16 -13 32 -21 35 -20 8 -9 43 20 68 18 15 43 17 196
18 l176 0 27 -31z m-160 -171 c34 -18 46 -40 47 -81 0 -52 -43 -97 -93 -97
-27 0 -42 8 -66 35 -17 20 -31 46 -31 58 1 72 80 119 143 85z m111 -216 c3 -5
2 -30 -2 -58 l-7 -49 -125 -3 c-164 -4 -166 -3 -174 54 -3 25 -3 50 0 55 7 11
301 12 308 1z"/>
<path d="M2840 4416 c0 -2 7 -7 16 -10 8 -3 12 -2 9 4 -6 10 -25 14 -25 6z"/>
<path d="M2970 4398 c0 -5 11 -8 24 -8 14 0 27 3 29 8 3 4 -8 7 -24 7 -16 0
-29 -3 -29 -7z"/>
<path d="M2888 4393 c7 -3 16 -2 19 1 4 3 -2 6 -13 5 -11 0 -14 -3 -6 -6z"/>
<path d="M2895 4230 c-16 -7 -17 -9 -3 -9 9 -1 20 4 23 9 7 11 7 11 -20 0z"/>
<path d="M2977 4228 c2 -5 10 -8 18 -8 8 0 16 3 18 8 3 4 -5 7 -18 7 -13 0
-21 -3 -18 -7z"/>
<path d="M3077 4229 c7 -7 15 -10 18 -7 3 3 -2 9 -12 12 -14 6 -15 5 -6 -5z"/>
<path d="M2805 4150 c-3 -5 -2 -10 4 -10 5 0 13 5 16 10 3 6 2 10 -4 10 -5 0
-13 -4 -16 -10z"/>
<path d="M2900 4150 c-23 -7 -23 -8 -3 -9 12 -1 25 4 28 9 3 6 5 10 3 9 -2 -1
-14 -5 -28 -9z"/>
<path d="M2966 4148 c6 -10 51 -11 57 0 3 4 -10 7 -28 8 -19 0 -32 -3 -29 -8z"/>
<path d="M2813 4072 c-6 -4 8 -7 32 -7 24 0 38 3 32 7 -7 4 -21 8 -32 8 -11 0
-25 -4 -32 -8z"/>
<path d="M2910 4070 c-8 -5 -10 -10 -5 -10 6 0 17 5 25 10 8 5 11 10 5 10 -5
0 -17 -5 -25 -10z"/>
<path d="M2960 4070 c8 -5 20 -10 25 -10 6 0 3 5 -5 10 -8 5 -19 10 -25 10 -5
0 -3 -5 5 -10z"/>
<path d="M3013 4072 c-6 -4 8 -7 32 -7 24 0 38 3 32 7 -7 4 -21 8 -32 8 -11 0
-25 -4 -32 -8z"/>
<path d="M2815 3990 c-5 -9 -2 -10 13 -6 11 4 30 2 43 -4 19 -9 32 -7 59 5 20
9 24 13 10 9 -31 -8 -57 -8 -91 1 -17 4 -29 2 -34 -5z"/>
<path d="M3020 3989 c-12 -8 -10 -9 7 -4 12 3 33 1 45 -6 21 -11 22 -11 9 4
-15 19 -39 22 -61 6z"/>
<path d="M2977 3979 c7 -7 15 -10 18 -7 3 3 -2 9 -12 12 -14 6 -15 5 -6 -5z"/>
<path d="M3338 4398 c5 -5 16 -8 23 -6 8 3 3 7 -10 11 -17 4 -21 3 -13 -5z"/>
<path d="M3448 4393 c7 -3 16 -2 19 1 4 3 -2 6 -13 5 -11 0 -14 -3 -6 -6z"/>
<path d="M3279 4323 c-13 -17 -13 -17 6 -3 11 8 22 16 24 17 2 2 0 3 -6 3 -6
0 -17 -8 -24 -17z"/>
<path d="M3400 4336 c0 -2 7 -7 16 -10 8 -3 12 -2 9 4 -6 10 -25 14 -25 6z"/>
<path d="M3337 4228 c2 -5 10 -8 18 -8 8 0 16 3 18 8 3 4 -5 7 -18 7 -13 0
-21 -3 -18 -7z"/>
<path d="M3448 4223 c7 -3 16 -2 19 1 4 3 -2 6 -13 5 -11 0 -14 -3 -6 -6z"/>
<path d="M3270 4150 c-9 -6 -10 -10 -3 -10 6 0 15 5 18 10 8 12 4 12 -15 0z"/>
<path d="M3326 4148 c6 -10 51 -11 57 0 3 4 -10 7 -28 8 -19 0 -32 -3 -29 -8z"/>
<path d="M3460 4150 c-23 -7 -23 -8 -3 -9 12 -1 25 4 28 9 3 6 5 10 3 9 -2 -1
-14 -5 -28 -9z"/>
<path d="M1310 2770 l0 -500 100 0 100 0 0 190 0 190 195 0 195 0 0 -190 0
-190 100 0 100 0 0 500 0 500 -100 0 -100 0 0 -215 0 -215 -195 0 -195 0 0
215 0 215 -100 0 -100 0 0 -500z"/>
<path d="M4477 3180 c-37 -49 -67 -92 -67 -95 0 -3 95 -5 210 -5 116 0 210 -2
210 -5 0 -3 -99 -152 -220 -332 l-220 -326 0 -74 0 -73 299 0 299 0 66 90 c36
49 66 92 66 94 0 3 -103 7 -229 8 l-229 3 224 328 224 327 0 75 0 75 -283 0
-282 0 -68 -90z"/>
<path d="M3164 2981 c-101 -26 -208 -122 -244 -219 -31 -81 -25 -215 12 -287
35 -68 101 -133 168 -164 70 -33 196 -41 265 -18 25 9 45 13 45 9 0 -24 -46
-76 -83 -92 -54 -25 -91 -25 -147 1 l-44 20 -66 -66 -65 -66 25 -21 c14 -11
47 -32 75 -46 43 -23 63 -26 145 -27 82 0 103 4 151 26 76 36 129 86 170 161
l34 63 0 240 0 240 -34 63 c-64 119 -168 183 -301 188 -41 2 -89 0 -106 -5z
m185 -210 c47 -34 74 -94 68 -154 -8 -85 -64 -138 -154 -145 -49 -3 -64 0 -93
20 -91 62 -108 179 -37 257 51 55 154 66 216 22z"/>
<path d="M3920 2974 c-109 -29 -190 -98 -238 -203 -23 -47 -27 -70 -27 -146 0
-79 3 -97 29 -149 37 -76 101 -140 174 -174 50 -24 69 -27 157 -27 86 0 107 4
145 24 57 30 112 71 108 80 -2 5 -31 34 -65 65 l-61 56 -48 -25 c-74 -40 -150
-29 -203 29 l-24 26 252 0 253 0 -4 93 c-3 72 -10 104 -30 148 -49 107 -136
179 -247 205 -70 17 -102 17 -171 -2z m165 -190 c18 -8 43 -26 56 -40 l22 -24
-146 0 c-81 0 -147 4 -147 8 0 12 30 38 65 56 38 20 108 20 150 0z"/>
<path d="M2202 2743 c3 -272 8 -291 93 -382 63 -68 129 -95 226 -96 67 0 84 4
145 35 49 25 79 49 106 85 61 80 68 118 68 372 l0 223 -94 0 -95 0 -3 -226 -3
-226 -37 -34 c-32 -29 -45 -34 -87 -34 -61 0 -105 33 -121 88 -5 20 -10 126
-10 235 l0 197 -96 0 -96 0 4 -237z"/>
<path d="M2791 1815 c0 -13 28 -50 33 -44 3 2 -4 15 -14 29 -11 14 -20 21 -19
15z"/>
<path d="M2750 1804 c0 -7 9 -22 21 -35 16 -19 18 -20 10 -4 -17 34 -31 51
-31 39z"/>
<path d="M3581 1805 c0 -18 28 -61 29 -44 0 8 -7 24 -15 35 -8 10 -14 15 -14
9z"/>
<path d="M2590 1778 c0 -57 -10 -68 -56 -68 -24 0 -44 -3 -44 -8 0 -4 20 -6
45 -4 l46 4 -30 -82 c-17 -45 -36 -89 -42 -96 -7 -8 -9 -17 -6 -20 8 -8 47 71
67 136 20 63 50 82 95 62 22 -10 25 -18 25 -59 0 -103 -30 -149 -87 -138 -28
5 -28 5 -3 -5 59 -26 89 12 97 121 6 80 -9 102 -66 97 l-36 -3 3 43 c2 23 1
42 -2 42 -3 0 -6 -10 -6 -22z"/>
<path d="M3541 1795 c0 -18 28 -61 29 -44 0 8 -7 24 -15 35 -8 10 -14 15 -14
9z"/>
<path d="M2972 1678 c-61 -114 -82 -159 -82 -181 0 -7 13 15 29 48 30 63 52
88 87 99 35 11 54 -17 54 -78 0 -28 5 -57 12 -64 18 -18 62 -14 86 8 25 23 57
80 45 80 -5 0 -15 -15 -23 -33 -19 -41 -63 -66 -87 -51 -13 8 -19 27 -21 66
-4 71 -26 96 -72 80 -16 -6 -30 -8 -30 -5 0 3 16 35 36 70 20 36 34 66 31 69
-2 2 -31 -46 -65 -108z"/>
<path d="M3296 1723 c-4 -38 -10 -84 -13 -103 -3 -19 -3 -32 1 -29 3 3 11 41
16 85 6 43 13 86 16 96 3 10 1 18 -4 18 -5 0 -13 -30 -16 -67z"/>
<path d="M3500 1755 l-5 -40 -55 -6 -55 -6 58 -1 57 -2 0 -60 c0 -60 0 -60
-25 -54 -33 8 -83 -13 -91 -38 -9 -30 22 -58 66 -58 41 0 60 14 60 45 0 18 -2
17 -13 -5 -15 -31 -66 -39 -91 -15 -22 22 -5 51 34 60 23 5 45 -1 91 -24 34
-17 55 -24 48 -15 -7 8 -25 22 -41 30 -26 13 -28 19 -28 74 0 57 1 60 28 66
44 10 50 14 10 10 l-37 -5 -3 42 -4 42 -4 -40z"/>
<path d="M3832 1771 l57 -6 -99 -83 c-55 -46 -100 -89 -100 -95 0 -6 12 1 28
16 32 31 91 57 129 57 34 0 93 -34 93 -54 0 -8 4 -17 10 -21 5 -3 5 8 -2 26
-14 40 -66 63 -122 56 l-41 -6 65 59 65 59 -70 -1 -70 -1 57 -6z"/>
<path d="M3738 1763 c6 -2 18 -2 25 0 6 3 1 5 -13 5 -14 0 -19 -2 -12 -5z"/>
<path d="M2730 1742 c0 -5 6 -14 13 -20 7 -6 24 -34 37 -62 13 -27 25 -48 27
-46 6 6 -54 123 -67 131 -5 3 -10 2 -10 -3z"/>
<path d="M3315 1565 c-7 -26 -9 -27 -16 -10 -6 15 -8 11 -8 -17 -1 -20 4 -40
9 -43 6 -3 10 3 10 15 0 12 5 30 11 41 6 11 8 25 6 32 -3 7 -8 -1 -12 -18z"/>
<path d="M3761 1552 c-7 -14 -6 -25 6 -42 33 -47 185 -7 182 49 0 11 -3 8 -9
-6 -11 -28 -52 -51 -58 -33 -8 22 -41 50 -59 49 -14 0 -13 -2 4 -9 19 -8 43
-38 43 -54 0 -14 -80 -5 -95 11 -16 16 -16 18 5 35 17 14 18 18 6 18 -8 0 -20
-8 -25 -18z"/>
</g>
</svg>
