<?xml version="1.0" standalone="no"?>
<!DOCTYPE svg PUBLIC "-//W3C//DTD SVG 20010904//EN"
 "http://www.w3.org/TR/2001/REC-SVG-20010904/DTD/svg10.dtd">
<svg version="1.0" xmlns="http://www.w3.org/2000/svg"
 width="363.000000pt" height="363.000000pt" viewBox="0 0 363.000000 363.000000"
 preserveAspectRatio="xMidYMid meet">
<metadata>
Created by potrace 1.14, written by Peter Selinger 2001-2017
</metadata>
<g transform="translate(0.000000,363.000000) scale(0.100000,-0.100000)"
fill="#000000" stroke="none">
<path d="M2114 2572 c-10 -7 -25 -36 -29 -57 -1 -5 -3 -12 -4 -15 -5 -11 -12
-46 -15 -70 -1 -14 -5 -30 -9 -36 -3 -6 -5 -21 -2 -33 2 -11 -1 -21 -6 -21 -6
0 -7 -4 -4 -10 3 -5 1 -10 -5 -10 -7 0 -10 -6 -8 -12 3 -7 -1 -19 -8 -26 -7
-7 -11 -19 -8 -27 4 -8 1 -15 -6 -15 -6 0 -9 -4 -6 -9 3 -5 -1 -27 -9 -50 -8
-23 -12 -41 -9 -41 2 0 0 -9 -6 -20 -7 -14 -7 -20 0 -20 5 0 11 7 11 15 2 16
5 34 8 38 2 1 4 13 7 26 2 14 8 29 13 35 8 10 51 133 55 159 1 7 10 27 19 45
10 18 15 36 12 41 -2 5 2 11 10 15 8 3 15 12 15 19 0 8 7 20 15 27 8 7 12 16
9 21 -3 5 0 9 7 9 8 0 8 4 -1 15 -14 16 -29 19 -46 7z"/>
<path d="M1346 2535 c-3 -8 -9 -14 -13 -13 -4 1 -23 -7 -40 -18 -26 -15 -32
-25 -31 -46 1 -16 6 -28 11 -28 4 0 5 -4 2 -10 -3 -5 -1 -10 4 -10 6 0 10 -3
9 -7 -4 -20 154 -338 176 -354 5 -4 6 -11 2 -17 -3 -6 2 -15 11 -21 10 -5 17
-13 17 -18 -2 -10 12 -47 37 -100 11 -23 20 -45 19 -49 -1 -4 2 -10 7 -13 8
-6 77 -147 79 -160 0 -3 7 -22 16 -41 26 -58 107 -250 107 -255 2 -22 15 -55
22 -55 12 0 11 17 -1 25 -6 4 -8 10 -5 15 3 5 0 20 -7 32 -12 23 -17 38 -20
70 -1 10 -8 20 -15 22 -7 3 -10 12 -7 20 3 8 2 21 -2 28 -9 14 -9 13 -26 81
-7 26 -16 47 -20 47 -5 0 -8 9 -8 20 0 10 -5 32 -11 47 -16 40 -47 125 -53
148 -2 6 -5 17 -8 25 -3 8 -14 42 -23 75 -10 33 -22 71 -28 85 -6 14 -12 36
-14 49 -2 13 -10 33 -18 44 -7 11 -11 26 -8 33 3 8 0 14 -7 14 -6 0 -9 4 -6 8
3 5 -4 25 -14 45 -11 21 -18 37 -16 37 2 0 -9 39 -25 86 -16 47 -29 92 -29
100 0 8 -4 14 -8 14 -4 0 -8 10 -9 22 -3 33 -36 50 -47 23z"/>
<path d="M1963 2070 c-1 -11 0 -20 2 -20 2 0 9 9 15 20 8 15 8 20 -3 20 -7 0
-13 -9 -14 -20z"/>
<path d="M1954 2025 c3 -8 0 -15 -6 -15 -6 0 -9 -3 -6 -6 4 -3 2 -20 -4 -37
-5 -18 -11 -39 -12 -47 -1 -8 -10 -41 -20 -72 -9 -32 -15 -62 -12 -67 4 -5 2
-11 -3 -13 -5 -1 -11 -19 -14 -39 -2 -20 -8 -42 -12 -48 -3 -7 -8 -26 -11 -44
-2 -18 -6 -43 -9 -57 -6 -29 -12 -67 -20 -125 -14 -113 -18 -131 -30 -137 -8
-5 -11 -24 -9 -54 3 -40 2 -44 -11 -34 -9 7 -13 15 -11 18 3 2 0 10 -7 17 -7
7 -29 31 -50 54 -21 22 -42 41 -48 41 -6 0 -7 5 -4 10 3 6 1 10 -5 10 -11 0
-24 9 -61 43 -10 9 -26 17 -34 17 -8 0 -15 4 -15 8 0 5 -19 15 -42 22 -24 8
-47 16 -53 19 -13 7 -16 8 -105 24 -41 8 -112 13 -157 13 -46 -1 -83 3 -83 7
0 5 -5 5 -11 1 -6 -3 -39 -8 -72 -10 -85 -4 -169 -14 -179 -20 -4 -3 -8 0 -8
6 0 6 -4 9 -9 5 -12 -7 -101 -18 -241 -31 -92 -8 -108 -18 -127 -83 -9 -31
-17 -65 -19 -76 -1 -11 -3 -20 -4 -20 -3 0 -12 -40 -13 -61 -4 -45 -20 -51
-136 -49 -61 0 -112 3 -115 5 -2 3 -41 4 -85 2 l-82 -4 3 -91 3 -90 60 -1 c33
0 63 -4 66 -9 7 -10 -8 -64 -23 -83 -5 -7 -29 -10 -58 -8 l-50 3 0 -89 0 -90
1815 0 1816 0 -3 63 c-3 53 -6 63 -25 72 -13 5 -23 13 -23 17 0 5 -5 8 -11 8
-6 0 -17 7 -25 15 -9 8 -13 15 -11 15 3 0 -15 21 -39 46 -24 25 -44 50 -44 55
0 5 -7 9 -15 9 -8 0 -14 4 -13 8 5 16 -137 161 -179 183 -15 8 -38 23 -51 34
-13 11 -29 20 -35 21 -50 4 -108 32 -75 36 48 5 126 4 141 -4 12 -6 17 -5 17
4 0 10 2 10 9 0 7 -11 9 -10 14 3 4 9 3 13 -3 10 -6 -3 -10 -2 -10 4 0 5 -8 8
-17 6 -10 -1 -25 1 -34 6 -9 4 -33 9 -53 11 -20 1 -36 6 -36 11 0 4 -3 6 -7 4
-12 -7 -55 12 -49 21 3 5 44 7 91 5 58 -3 85 -1 85 7 0 6 4 8 10 5 6 -4 9 5 8
20 -2 18 -12 32 -33 43 -16 9 -33 15 -37 14 -5 -1 -8 3 -8 10 0 6 -3 8 -7 5
-3 -4 -13 -1 -20 5 -8 7 -30 11 -49 10 -19 -2 -34 1 -34 6 0 5 -11 7 -25 4
-17 -3 -25 0 -25 9 0 11 -2 11 -10 -1 -7 -11 -10 -11 -10 -2 0 7 -4 11 -9 7
-5 -3 -12 -2 -15 3 -2 4 5 8 17 9 12 1 54 2 94 4 43 2 69 7 66 12 -3 6 -1 7 6
3 15 -10 53 3 45 15 -3 5 -10 6 -16 3 -5 -4 -4 4 2 17 7 13 9 21 5 17 -4 -4
-16 2 -28 13 -19 17 -38 24 -59 20 -5 0 -8 4 -8 9 0 6 -8 10 -18 10 -10 0 -21
3 -25 6 -8 9 -107 11 -107 2 0 -4 -13 -3 -30 2 -16 5 -30 6 -30 2 0 -4 -21 -7
-48 -8 -68 -1 -347 -28 -347 -34 0 -1 -18 -3 -40 -6 -42 -4 -80 -11 -80 -14 0
-1 -9 -3 -20 -4 -11 -2 -36 -7 -55 -11 -19 -5 -38 -8 -42 -7 -5 1 -8 -2 -8 -6
0 -4 -9 -8 -21 -9 -29 -3 -164 -71 -194 -99 -14 -13 -30 -24 -36 -24 -5 0 -9
-4 -9 -10 0 -5 -7 -10 -15 -10 -8 0 -15 -3 -15 -7 0 -5 -14 -23 -31 -40 -16
-18 -27 -33 -24 -33 3 0 0 -6 -7 -14 -7 -8 -16 -12 -19 -10 -8 4 -4 148 6 219
4 28 8 64 10 80 2 17 6 40 9 52 9 44 20 118 18 127 -2 4 3 14 9 22 6 8 8 14 5
14 -4 0 -2 8 3 18 5 9 12 33 15 53 3 20 10 48 16 63 13 35 13 46 -1 46 -6 0
-9 -7 -5 -15z"/>
</g>
</svg>
